<svg width="67" height="55" viewBox="0 0 67 55" fill="none" xmlns="http://www.w3.org/2000/svg">
<path fill-rule="evenodd" clip-rule="evenodd" d="M31.2171 10.2898C32.6502 9.55435 34.3498 9.55436 35.7829 10.2898L50.1633 17.6698C53.0001 19.1257 53.4841 22.3006 52.25 24.5681V49.1183C52.25 51.8797 50.0114 54.1183 47.25 54.1183H38.6717C38.7231 53.8344 38.75 53.542 38.75 53.2433V46.9933C38.75 44.3009 36.5674 42.1183 33.875 42.1183C31.1826 42.1183 29 44.3009 29 46.9933V53.2433C29 53.542 29.0269 53.8344 29.0783 54.1183H19.75C16.9886 54.1183 14.75 51.8797 14.75 49.1183V24.568C13.5159 22.3006 13.9999 19.1257 16.8367 17.6698L31.2171 10.2898ZM35.25 20.1183C34.6977 20.1183 34.25 20.566 34.25 21.1183V25.1183C34.25 25.6706 34.6977 26.1183 35.25 26.1183H37.75C38.3023 26.1183 38.75 25.6706 38.75 25.1183V21.1183C38.75 20.566 38.3023 20.1183 37.75 20.1183H35.25ZM34.25 29.1183C34.25 28.566 34.6977 28.1183 35.25 28.1183H37.75C38.3023 28.1183 38.75 28.566 38.75 29.1183V33.1183C38.75 33.6706 38.3023 34.1183 37.75 34.1183H35.25C34.6977 34.1183 34.25 33.6706 34.25 33.1183V29.1183ZM29.25 28.1183C28.6977 28.1183 28.25 28.566 28.25 29.1183V33.1183C28.25 33.6706 28.6977 34.1183 29.25 34.1183H31.75C32.3023 34.1183 32.75 33.6706 32.75 33.1183V29.1183C32.75 28.566 32.3023 28.1183 31.75 28.1183H29.25ZM28.25 21.1183C28.25 20.566 28.6977 20.1183 29.25 20.1183H31.75C32.3023 20.1183 32.75 20.566 32.75 21.1183V25.1183C32.75 25.6706 32.3023 26.1183 31.75 26.1183H29.25C28.6977 26.1183 28.25 25.6706 28.25 25.1183V21.1183Z" fill="#00C2FF"/>
<path d="M12 33.9737C12 32.9185 10.5775 32.5826 10.1056 33.5265L0.723607 52.2904C0.391157 52.9553 0.874652 53.7376 1.61803 53.7376H11C11.5523 53.7376 12 53.2899 12 52.7376V33.9737Z" fill="#00C2FF"/>
<path d="M55 33.9737C55 32.9185 56.4225 32.5826 56.8944 33.5265L66.2764 52.2904C66.6088 52.9553 66.1253 53.7376 65.382 53.7376H56C55.4477 53.7376 55 53.2899 55 52.7376V33.9737Z" fill="#00C2FF"/>
<path fill-rule="evenodd" clip-rule="evenodd" d="M35.7829 0.5516C34.3498 -0.183865 32.6502 -0.183867 31.2171 0.551597L13.4719 9.65843C9.9773 11.4519 10.0531 15.854 12.5129 17.9549C12.7963 17.7229 13.1155 17.5129 13.4719 17.33L31.2171 8.22317C32.6502 7.4877 34.3498 7.4877 35.7829 8.22317L53.5281 17.33C53.8845 17.5129 54.2038 17.7229 54.4871 17.9549C56.9469 15.854 57.0227 11.4519 53.5281 9.65844L35.7829 0.5516Z" fill="#00C2FF"/>
</svg>
